# Blender 5.0.1
# www.blender.org
mtllib lampara.mtl
g s4studio_mesh_1_Malla
v 0.011109 0.266793 0.011109
v 0.011109 0.266793 0.011109
v 0.011109 0.266793 -0.011109
v -0.011109 0.266793 0.160710
v 0.001434 0.290414 0.025391
v 0.001434 0.341746 0.025391
v 0.027100 0.290414 -0.000244
v 0.001434 0.341746 -0.025910
v 0.011109 0.266793 0.160710
v -0.011109 0.266793 -0.011109
v -0.011109 0.266793 0.011109
v -0.160710 0.266793 -0.011109
v 0.160710 0.266793 -0.011109
v 0.160710 0.266793 0.011109
v -0.011109 0.266793 0.011109
v -0.160710 0.266793 0.011109
v -0.034852 0.316080 -0.000244
v -0.024201 0.290414 -0.000244
v 0.001434 0.316080 -0.036561
v 0.001434 0.316080 -0.036561
v 0.001434 0.352367 -0.000244
v -0.011109 0.266793 -0.011109
v 0.001434 0.352367 -0.000244
v 0.011109 0.266793 -0.011109
v 0.001434 0.290414 -0.025910
v 0.027100 0.290414 -0.000244
v -0.017579 0.305643 0.000000
v -0.017579 0.017731 0.000000
v -0.024201 0.290414 -0.000244
v 0.001434 0.290414 0.025391
v -0.034852 0.316080 -0.000244
v 0.001434 0.316080 0.036012
v 0.001434 0.341746 0.025391
v 0.027100 0.341746 -0.000244
v 0.027100 0.341746 -0.000244
v 0.001434 0.341746 -0.025910
v 0.011109 0.266793 -0.160710
v -0.011109 0.266793 -0.160710
v 0.001434 0.352367 -0.000244
v 0.001434 0.352367 -0.000244
v -0.024201 0.341746 -0.000244
v -0.024201 0.341746 -0.000244
v 0.037721 0.316080 -0.000244
v 0.001434 0.290414 -0.025910
v 0.001434 0.290414 0.025391
v 0.000000 0.017731 -0.017579
v 0.027100 0.290414 -0.000244
v -0.017579 0.017731 0.000000
v 0.037721 0.316080 -0.000244
v 0.001434 0.316080 0.036012
v -0.011994 0.017731 -0.011994
v -0.017579 0.305643 0.000000
v -0.171667 0.242317 0.000000
v -0.157964 0.242317 0.000000
v -0.171667 0.439772 0.000000
v -0.157964 0.439772 0.000000
v -0.171667 0.242317 0.000000
v -0.157964 0.242317 0.000000
v -0.171667 0.439772 0.000000
v -0.157964 0.439772 0.000000
v 0.000000 0.305643 0.017579
v -0.011994 0.305643 0.011994
v 0.000000 0.017731 0.017579
v -0.011994 0.017731 0.011994
v 0.000000 0.305643 -0.017579
v -0.011994 0.305643 -0.011994
v 0.000000 0.017731 -0.017579
v 0.000000 0.305643 -0.017579
v 0.017579 0.017731 0.000000
v 0.011994 0.017731 -0.011994
v 0.017579 0.305643 0.000000
v 0.011994 0.305643 -0.011994
v 0.017579 0.017731 0.000000
v 0.017579 0.305643 0.000000
v 0.000000 0.017731 0.017579
v 0.000000 0.305643 0.017579
v 0.011994 0.305643 0.011994
v 0.011994 0.017731 0.011994
v -0.148656 0.439772 -0.085818
v -0.136814 0.439772 -0.078982
v 0.136814 0.439772 0.078982
v 0.171667 0.439772 0.000000
v 0.157964 0.242317 0.000000
v 0.157964 0.439772 0.000000
v 0.171667 0.242317 0.000000
v 0.157964 0.242317 0.000000
v 0.148656 0.242317 -0.085818
v 0.136814 0.242317 -0.078982
v 0.148656 0.439772 -0.085818
v 0.136814 0.439772 -0.078982
v 0.171667 0.439772 0.000000
v 0.157964 0.439772 0.000000
v -0.136814 0.242317 -0.078982
v -0.078982 0.439772 -0.136814
v -0.148656 0.242317 -0.085818
v -0.085818 0.439772 -0.148656
v -0.078982 0.242317 -0.136814
v -0.085818 0.242317 -0.148656
v 0.000000 0.439772 -0.157964
v 0.000000 0.439772 -0.171667
v 0.000000 0.242317 -0.157964
v 0.000000 0.242317 -0.171667
v 0.078982 0.439772 -0.136814
v 0.085818 0.242317 -0.148656
v 0.078982 0.242317 -0.136814
v 0.085818 0.439772 -0.148656
v 0.148656 0.439772 0.085818
v 0.171667 0.242317 0.000000
v 0.085818 0.242317 0.148656
v 0.085818 0.439772 0.148656
v 0.148656 0.242317 0.085818
v 0.148656 0.439772 0.085818
v -0.136814 0.439772 -0.078982
v -0.136814 0.242317 -0.078982
v -0.078982 0.439772 -0.136814
v 0.000000 0.439772 -0.157964
v 0.171667 0.242317 0.000000
v 0.171667 0.439772 0.000000
v -0.157964 0.439772 0.000000
v -0.157964 0.242317 0.000000
v 0.171667 0.242317 0.000000
v 0.148656 0.242317 -0.085818
v -0.157964 0.439772 0.000000
v -0.157964 0.242317 0.000000
v 0.171667 0.439772 0.000000
v 0.148656 0.439772 -0.085818
v -0.085818 0.242317 0.148656
v -0.148656 0.242317 0.085818
v 0.085818 0.242317 -0.148656
v 0.085818 0.439772 -0.148656
v -0.085818 0.439772 0.148656
v -0.148656 0.439772 0.085818
v 0.136814 0.242317 0.078982
v 0.148656 0.242317 0.085818
v 0.078982 0.439772 0.136814
v 0.085818 0.439772 0.148656
v -0.148656 0.242317 0.085818
v -0.136814 0.242317 0.078982
v -0.085818 0.242317 0.148656
v -0.078982 0.242317 0.136814
v 0.078982 0.242317 0.136814
v 0.085818 0.242317 0.148656
v -0.171667 0.242317 0.000000
v -0.171667 0.439772 0.000000
v 0.000000 0.439772 0.157964
v 0.000000 0.439772 0.171667
v -0.171667 0.242317 0.000000
v -0.171667 0.439772 0.000000
v 0.000000 0.242317 0.157964
v 0.000000 0.242317 0.171667
v -0.148656 0.242317 -0.085818
v -0.148656 0.439772 -0.085818
v -0.136814 0.439772 0.078982
v -0.078982 0.439772 0.136814
v -0.085818 0.242317 -0.148656
v -0.085818 0.439772 -0.148656
v -0.085818 0.439772 0.148656
v -0.148656 0.439772 0.085818
v 0.000000 0.242317 -0.171667
v 0.000000 0.439772 -0.171667
v 0.000000 0.242317 0.171667
v 0.000000 0.439772 0.171667
v 0.000000 0.242317 -0.157964
v -0.078982 0.242317 -0.136814
v 0.097903 -0.000000 0.056520
v -0.056520 -0.000000 0.097903
v 0.056520 -0.000000 0.097903
v 0.097903 0.000000 -0.056520
v 0.157964 0.439772 0.000000
v 0.078982 0.242317 -0.136814
v 0.136814 0.439772 -0.078982
v 0.078982 0.439772 -0.136814
v 0.157964 0.242317 0.000000
v 0.136814 0.242317 -0.078982
v 0.078982 0.439772 0.136814
v 0.157964 0.242317 0.000000
v 0.136814 0.439772 0.078982
v 0.157964 0.439772 0.000000
v 0.078982 0.242317 0.136814
v 0.136814 0.242317 0.078982
v -0.136814 0.439772 0.078982
v 0.000000 0.242317 0.157964
v -0.078982 0.439772 0.136814
v 0.000000 0.439772 0.157964
v -0.136814 0.242317 0.078982
v -0.078982 0.242317 0.136814
v 0.000000 -0.000000 0.113041
v -0.097903 -0.000000 0.056520
v 0.113041 0.000000 0.000000
v 0.056520 0.000000 -0.097903
v -0.113041 0.021912 0.000000
v -0.113041 0.000000 0.000000
v 0.000000 0.000000 -0.113041
v 0.113041 0.021912 0.000000
v 0.113041 0.000000 0.000000
v 0.113041 0.021912 0.000000
v 0.000000 0.021912 0.113041
v 0.000000 -0.000000 0.113041
v 0.000000 0.000000 -0.113041
v -0.113041 0.000000 0.000000
v 0.056520 0.000000 -0.097903
v 0.097903 0.021912 -0.056520
v 0.056520 0.021912 -0.097903
v -0.097903 -0.000000 0.056520
v 0.000000 0.021912 -0.113041
v -0.113041 0.000000 0.000000
v 0.097903 -0.000000 0.056520
v 0.097903 0.021912 0.056520
v 0.097903 0.000000 -0.056520
v -0.097903 0.000000 -0.056520
v -0.056520 0.021912 0.097903
v -0.097903 0.021912 0.056520
v 0.056520 -0.000000 0.097903
v 0.056520 0.021912 0.097903
v -0.113041 0.021912 0.000000
v 0.113041 0.000000 0.000000
v -0.056520 0.000000 -0.097903
v -0.056520 -0.000000 0.097903
v -0.097903 0.021912 0.056520
v 0.097903 0.021912 0.056520
v 0.056520 0.021912 0.097903
v -0.056520 0.021912 0.097903
v 0.000000 0.021912 0.113041
v -0.113041 0.021912 0.000000
v -0.097903 0.021912 -0.056520
v -0.056520 0.021912 -0.097903
v -0.097903 0.021912 -0.056520
v -0.097903 0.000000 -0.056520
v -0.056520 0.000000 -0.097903
v -0.056520 0.021912 -0.097903
v 0.113041 0.021912 0.000000
v 0.000000 0.021912 -0.113041
v 0.056520 0.021912 -0.097903
v 0.097903 0.021912 -0.056520
vn -0.0000 1.0000 -0.0000
vn -0.6140 0.4959 0.6140
vn -0.3575 0.8628 0.3575
vn -0.6138 0.4962 0.6141
vn -0.7069 0.0001 0.7073
vn -0.6784 -0.2811 0.6788
vn -0.6785 -0.2816 0.6785
vn -0.6141 0.4966 -0.6134
vn -0.3575 0.8629 -0.3571
vn -0.6142 0.4963 -0.6136
vn -0.7074 -0.0000 -0.7068
vn -0.4571 -0.7632 -0.4567
vn -0.4575 -0.7629 -0.4569
vn -0.0000 -1.0000 -0.0000
vn 0.6138 0.4965 -0.6138
vn 0.3572 0.8631 -0.3572
vn 0.6140 0.4962 -0.6138
vn 0.7073 -0.0001 -0.7069
vn 0.6788 -0.2813 -0.6784
vn 0.6786 -0.2808 -0.6786
vn 0.6137 0.4958 0.6145
vn 0.3571 0.8629 0.3575
vn 0.6136 0.4961 0.6142
vn 0.7068 -0.0000 0.7074
vn 0.6783 -0.2808 0.6790
vn 0.6782 -0.2810 0.6790
vn -0.9065 -0.0000 0.4221
vn -0.7071 -0.0000 0.7071
vn -0.4221 -0.0000 0.9065
vn -0.7071 -0.0000 -0.7071
vn -0.9065 -0.0000 -0.4221
vn -0.4221 -0.0000 -0.9065
vn 0.7071 -0.0000 -0.7071
vn 0.4221 -0.0000 -0.9065
vn 0.9065 -0.0000 -0.4221
vn 0.7071 -0.0000 0.7071
vn 0.9065 -0.0000 0.4221
vn 0.4221 -0.0000 0.9065
vn -0.8660 -0.0000 0.5001
vn -0.9659 -0.0000 0.2590
vn -0.5001 -0.0000 0.8660
vn -0.0000 -0.0000 1.0000
vn 0.5001 -0.0000 0.8660
vn 0.8660 -0.0000 0.5001
vn 0.9659 -0.0000 0.2590
vn -0.9659 -0.0000 -0.2590
vn -0.8660 -0.0000 -0.5001
vn -0.5001 -0.0000 -0.8660
vn -0.0000 -0.0000 -1.0000
vn 0.5001 -0.0000 -0.8660
vn 0.8660 -0.0000 -0.5001
vn 0.9659 -0.0000 -0.2590
vn 0.9660 -0.0000 -0.2587
vn 0.8661 -0.0000 -0.4999
vn 0.4999 -0.0000 -0.8661
vn -0.4999 -0.0000 -0.8661
vn -0.8661 -0.0000 -0.4999
vn -0.9660 -0.0000 -0.2587
vn 0.8661 -0.0000 0.4999
vn 0.9660 -0.0000 0.2587
vn 0.4999 -0.0000 0.8661
vn -0.4999 -0.0000 0.8661
vn -0.8661 -0.0000 0.4999
vn -0.9660 -0.0000 0.2587
vn -0.8660 -0.0000 0.5000
vn -0.5000 -0.0000 0.8660
vn 0.5000 -0.0000 0.8660
vn 0.8660 -0.0000 0.5000
vn -0.8660 -0.0000 -0.5000
vn -0.5000 -0.0000 -0.8660
vn 0.5000 -0.0000 -0.8660
vn 0.8660 -0.0000 -0.5000
vt 0.914821 0.443102
vt 0.629372 0.443102
vt 0.629372 0.421909
vt 0.914821 0.421909
vt 0.556988 0.390268
vt 0.490931 0.404507
vt 0.493737 0.378717
vt 0.589136 0.360150
vt 0.491230 0.350867
vt 0.575584 0.327973
vt 0.490334 0.324272
vt 0.424427 0.390627
vt 0.393712 0.360897
vt 0.409443 0.329644
vt 0.407532 0.289825
vt 0.487588 0.286691
vt 0.690086 0.029659
vt 0.690086 0.347793
vt 0.719368 0.347793
vt 0.719368 0.029659
vt 0.748620 0.347793
vt 0.748620 0.029659
vt 0.777873 0.029659
vt 0.777873 0.347793
vt 0.807125 0.029659
vt 0.807125 0.347793
vt 0.061907 0.881588
vt 0.061907 0.958599
vt 0.082533 0.962002
vt 0.082533 0.881588
vt 0.061907 0.801204
vt 0.082533 0.801204
vt 0.061907 0.720790
vt 0.082533 0.720730
vt 0.061907 0.640406
vt 0.082533 0.640406
vt 0.061907 0.559991
vt 0.082533 0.559991
vt 0.061907 0.482771
vt 0.082533 0.479339
vt 0.466873 0.958599
vt 0.442904 0.881588
vt 0.442904 0.962002
vt 0.466873 0.881588
vt 0.442904 0.801204
vt 0.466873 0.801204
vt 0.442904 0.720730
vt 0.466873 0.720790
vt 0.442904 0.640406
vt 0.466873 0.640406
vt 0.442904 0.559991
vt 0.466873 0.559991
vt 0.442904 0.479339
vt 0.466873 0.482771
vt 0.061907 0.881498
vt 0.466873 0.881140
vt 0.466873 0.958121
vt 0.466873 0.800995
vt 0.466873 0.720730
vt 0.548929 0.956330
vt 0.932164 0.876961
vt 0.932164 0.956330
vt 0.548929 0.876961
vt 0.932164 0.797592
vt 0.548929 0.797592
vt 0.932164 0.718252
vt 0.548929 0.718252
vt 0.932164 0.638883
vt 0.548929 0.638883
vt 0.932164 0.559544
vt 0.548899 0.559544
vt 0.932164 0.480174
vt 0.548929 0.480174
vt 0.548929 0.559544
vt 0.077250 0.364359
vt 0.092921 0.335137
vt 0.135695 0.313735
vt 0.194140 0.305914
vt 0.311030 0.364359
vt 0.194140 0.422804
vt 0.135695 0.414984
vt 0.092921 0.393582
vt 0.252585 0.313735
vt 0.295359 0.335137
vt 0.252585 0.414984
vt 0.295359 0.393582
vt 0.877748 0.087626
vt 0.919567 0.031808
vt 0.877748 0.031808
vt 0.919567 0.087626
vt 0.877748 0.143445
vt 0.919567 0.143445
vt 0.877748 0.199293
vt 0.919567 0.199293
vt 0.877748 0.255111
vt 0.919567 0.255111
vt 0.877748 0.310959
vt 0.919567 0.310959
vt 0.877748 0.366777
vt 0.919567 0.366777
vt 0.528213 0.138848
vt 0.496901 0.197293
vt 0.411323 0.240067
vt 0.294433 0.255738
vt 0.294433 0.021928
vt 0.411323 0.037599
vt 0.496901 0.080403
vt 0.060624 0.138848
vt 0.091966 0.080403
vt 0.177544 0.037599
vt 0.177544 0.240067
vt 0.091966 0.197293
s 1
g off
g s4studio_mesh_1_DIFFUSE.001
usemtl DIFFUSE.001
f 1/1/1 14/2/1 13/3/1
f 1/1/1 13/3/1 3/4/1
s 2
f 11/1/1 4/2/1 9/3/1
f 11/1/1 9/3/1 2/4/1
s 3
f 10/1/1 12/2/1 16/3/1
f 10/1/1 16/3/1 15/4/1
s 4
f 24/1/1 37/2/1 38/3/1
f 24/1/1 38/3/1 22/4/1
s 5
f 6/5/2 23/6/3 42/7/4
f 32/8/5 6/5/2 42/7/4
f 32/8/5 42/7/4 31/9/5
f 30/10/6 32/8/5 31/9/5
f 30/10/6 31/9/5 29/11/7
s 6
f 41/7/8 21/6/9 8/12/10
f 17/9/11 41/7/8 8/12/10
f 17/9/11 8/12/10 19/13/11
f 18/11/12 17/9/11 19/13/11
f 18/11/12 19/13/11 44/14/13
f 7/15/14 18/11/12 44/14/13
f 7/15/14 5/16/14 18/11/12
s 7
f 36/12/15 39/6/16 35/7/17
f 20/13/18 36/12/15 35/7/17
f 20/13/18 35/7/17 43/9/18
f 25/14/19 20/13/18 43/9/18
f 25/14/19 43/9/18 26/11/20
s 8
f 34/7/21 40/6/22 33/5/23
f 49/9/24 34/7/21 33/5/23
f 49/9/24 33/5/23 50/8/24
f 47/11/25 49/9/24 50/8/24
f 47/11/25 50/8/24 45/10/26
s 9
f 27/17/27 28/18/27 64/19/28
f 27/17/27 64/19/28 62/20/28
f 62/20/28 64/19/28 63/21/29
f 62/20/28 63/21/29 61/22/29
s 10
f 66/20/30 48/18/31 52/17/31
f 66/20/30 51/19/30 48/18/31
f 65/22/32 51/19/30 66/20/30
f 65/22/32 46/21/32 51/19/30
s 11
f 72/23/33 67/21/34 68/22/34
f 72/23/33 70/24/33 67/21/34
f 71/25/35 70/24/33 72/23/33
f 71/25/35 69/26/35 70/24/33
s 12
f 77/23/36 73/26/37 74/25/37
f 77/23/36 78/24/36 73/26/37
f 76/22/38 78/24/36 77/23/36
f 76/22/38 75/21/38 78/24/36
s 13
f 153/27/1 60/28/1 59/29/1
f 153/27/1 59/29/1 158/30/1
f 154/31/1 153/27/1 158/30/1
f 154/31/1 158/30/1 157/32/1
f 145/33/1 154/31/1 157/32/1
f 145/33/1 157/32/1 146/34/1
f 135/35/1 145/33/1 146/34/1
f 135/35/1 146/34/1 136/36/1
f 81/37/1 135/35/1 136/36/1
f 81/37/1 136/36/1 107/38/1
f 84/39/1 81/37/1 107/38/1
f 84/39/1 107/38/1 82/40/1
s 14
f 58/41/14 137/42/14 57/43/14
f 58/41/14 138/44/14 137/42/14
f 138/44/14 139/45/14 137/42/14
f 138/44/14 140/46/14 139/45/14
f 140/46/14 150/47/14 139/45/14
f 140/46/14 149/48/14 150/47/14
f 149/48/14 142/49/14 150/47/14
f 149/48/14 141/50/14 142/49/14
f 141/50/14 134/51/14 142/49/14
f 141/50/14 133/52/14 134/51/14
f 133/52/14 108/53/14 134/51/14
f 133/52/14 83/54/14 108/53/14
s 15
f 56/28/1 79/30/1 55/29/1
f 56/28/1 80/55/1 79/30/1
f 80/55/1 96/32/1 79/30/1
f 80/55/1 94/31/1 96/32/1
f 94/31/1 100/34/1 96/32/1
f 94/31/1 99/33/1 100/34/1
f 99/33/1 106/36/1 100/34/1
f 99/33/1 103/35/1 106/36/1
f 103/35/1 89/38/1 106/36/1
f 103/35/1 90/37/1 89/38/1
f 90/37/1 91/40/1 89/38/1
f 90/37/1 92/39/1 91/40/1
s 16
f 93/56/14 54/57/14 53/43/14
f 93/56/14 53/43/14 95/42/14
f 97/58/14 93/56/14 95/42/14
f 97/58/14 95/42/14 98/45/14
f 101/59/14 97/58/14 98/45/14
f 101/59/14 98/45/14 102/47/14
f 105/50/14 101/59/14 102/47/14
f 105/50/14 102/47/14 104/49/14
f 88/52/14 105/50/14 104/49/14
f 88/52/14 104/49/14 87/51/14
f 86/54/14 88/52/14 87/51/14
f 86/54/14 87/51/14 85/53/14
s 17
f 128/42/39 144/29/40 143/43/40
f 128/42/39 132/30/39 144/29/40
f 127/45/41 132/30/39 128/42/39
f 127/45/41 131/32/41 132/30/39
f 161/47/42 131/32/41 127/45/41
f 161/47/42 162/34/42 131/32/41
f 109/49/43 162/34/42 161/47/42
f 109/49/43 110/36/43 162/34/42
f 111/51/44 110/36/43 109/49/43
f 111/51/44 112/38/44 110/36/43
f 117/53/45 112/38/44 111/51/44
f 117/53/45 118/40/45 112/38/44
s 18
f 147/43/46 148/29/46 152/30/47
f 147/43/46 152/30/47 151/42/47
f 151/42/47 152/30/47 156/32/48
f 151/42/47 156/32/48 155/45/48
f 155/45/48 156/32/48 160/34/49
f 155/45/48 160/34/49 159/47/49
f 159/47/49 160/34/49 130/36/50
f 159/47/49 130/36/50 129/49/50
f 129/49/50 130/36/50 126/38/51
f 129/49/50 126/38/51 122/51/51
f 122/51/51 126/38/51 125/40/52
f 122/51/51 125/40/52 121/53/52
s 19
f 123/60/53 185/61/54 124/62/53
f 123/60/53 181/63/54 185/61/54
f 181/63/54 186/64/55 185/61/54
f 181/63/54 183/65/55 186/64/55
f 183/65/55 182/66/49 186/64/55
f 183/65/55 184/67/49 182/66/49
f 184/67/49 179/68/56 182/66/49
f 184/67/49 175/69/56 179/68/56
f 175/69/56 180/70/57 179/68/56
f 175/69/56 177/71/57 180/70/57
f 177/71/57 176/72/58 180/70/57
f 177/71/57 178/73/58 176/72/58
s 20
f 113/63/59 119/60/60 120/62/60
f 113/63/59 120/62/60 114/61/59
f 115/65/61 113/63/59 114/61/59
f 115/65/61 114/61/59 164/64/61
f 116/67/42 115/65/61 164/64/61
f 116/67/42 164/64/61 163/66/42
f 172/69/62 116/67/42 163/66/42
f 172/69/62 163/66/42 170/68/62
f 171/74/63 172/69/62 170/68/62
f 171/74/63 170/68/62 174/70/63
f 169/73/64 171/74/63 174/70/63
f 169/73/64 174/70/63 173/72/64
s 21
f 189/75/14 165/76/14 167/77/14
f 189/75/14 167/77/14 187/78/14
f 200/79/14 189/75/14 187/78/14
f 200/79/14 199/80/14 189/75/14
f 190/81/14 189/75/14 199/80/14
f 190/81/14 168/82/14 189/75/14
f 200/79/14 187/78/14 166/83/14
f 200/79/14 166/83/14 188/84/14
f 217/85/14 199/80/14 200/79/14
f 217/85/14 200/79/14 210/86/14
s 22
f 204/87/65 191/88/64 192/89/64
f 204/87/65 212/90/63 191/88/64
f 212/90/63 204/87/65 218/91/62
f 212/90/63 218/91/62 211/92/66
f 198/93/42 211/92/66 218/91/62
f 198/93/42 197/94/42 211/92/66
f 213/95/67 197/94/42 198/93/42
f 213/95/67 214/96/61 197/94/42
f 207/97/59 214/96/61 213/95/67
f 207/97/59 208/98/68 214/96/61
f 216/99/60 208/98/68 207/97/59
f 216/99/60 196/100/60 208/98/68
s 23
f 206/89/58 215/88/58 227/90/69
f 206/89/58 227/90/69 228/87/57
f 228/87/57 227/90/69 230/92/56
f 228/87/57 230/92/56 229/91/70
f 229/91/70 230/92/56 205/94/49
f 229/91/70 205/94/49 193/93/49
f 193/93/49 205/94/49 203/96/71
f 193/93/49 203/96/71 201/95/55
f 202/98/54 201/95/55 203/96/71
f 202/98/54 209/97/72 201/95/55
f 209/97/72 202/98/54 194/100/53
f 209/97/72 194/100/53 195/99/53
s 24
f 224/101/1 219/102/1 222/103/1
f 224/101/1 222/103/1 223/104/1
f 223/104/1 232/105/1 224/101/1
f 224/101/1 232/105/1 226/106/1
f 224/101/1 226/106/1 225/107/1
f 223/104/1 231/108/1 232/105/1
f 232/105/1 231/108/1 234/109/1
f 232/105/1 234/109/1 233/110/1
f 221/111/1 231/108/1 223/104/1
f 221/111/1 220/112/1 231/108/1
