# Blender 5.0.1
# www.blender.org
mtllib cubo-emociones.mtl
g cubo-numeros_Malla
v 1.000000 1.000000 -1.000000
v 1.000000 -1.000000 -1.000000
v 1.000000 1.000000 1.000000
v 1.000000 -1.000000 1.000000
v -1.000000 1.000000 -1.000000
v -1.000000 -1.000000 -1.000000
v -1.000000 1.000000 1.000000
v -1.000000 -1.000000 1.000000
vn -0.0000 1.0000 -0.0000
vn -0.0000 -0.0000 1.0000
vn -1.0000 -0.0000 -0.0000
vn -0.0000 -1.0000 -0.0000
vn 1.0000 -0.0000 -0.0000
vn -0.0000 -0.0000 -1.0000
vt 0.671588 0.891923
vt 0.486616 0.627608
vt 0.672295 0.628611
vt 0.479320 0.620034
vt 0.296071 0.364341
vt 0.478181 0.362732
vt 0.104717 0.362638
vt 0.287861 0.619784
vt 0.103689 0.619645
vt 0.662056 0.339929
vt 0.500053 0.085853
vt 0.662535 0.086599
vt 0.665657 0.619955
vt 0.490593 0.358561
vt 0.666379 0.359630
vt 0.861298 0.618767
vt 0.675812 0.361703
vt 0.861155 0.361042
vt 0.485908 0.890919
vt 0.297210 0.621643
vt 0.288889 0.362777
vt 0.499575 0.339182
vt 0.489871 0.618886
vt 0.675954 0.619426
s 1
g off
g cubo-numeros_Material.001
usemtl Material.001
f 5/1/1 3/2/1 1/3/1
s 2
f 3/4/2 8/5/2 4/6/2
s 3
f 7/7/3 6/8/3 8/9/3
s 4
f 2/10/4 8/11/4 6/12/4
s 5
f 1/13/5 4/14/5 2/15/5
s 6
f 5/16/6 2/17/6 6/18/6
s 1
f 5/1/1 7/19/1 3/2/1
s 2
f 3/4/2 7/20/2 8/5/2
s 3
f 7/7/3 5/21/3 6/8/3
s 4
f 2/10/4 4/22/4 8/11/4
s 5
f 1/13/5 3/23/5 4/14/5
s 6
f 5/16/6 1/24/6 2/17/6
